<mxfile host="app.diagrams.net" agent="Mozilla/5.0 (Windows NT 10.0; Win64; x64) AppleWebKit/537.36 (KHTML, like Gecko) Chrome/140.0.0.0 Safari/537.36" version="28.2.5" pages="2">
  <diagram name="Page-1" id="Qnb-MdqNoxR_H-0la0g4">
    <mxGraphModel dx="1281" dy="527" grid="1" gridSize="10" guides="1" tooltips="1" connect="1" arrows="1" fold="1" page="1" pageScale="1" pageWidth="850" pageHeight="1100" math="0" shadow="0">
      <root>
        <mxCell id="0" />
        <mxCell id="1" parent="0" />
        <mxCell id="2" value="Start" style="ellipse;whiteSpace=wrap;" parent="1" vertex="1">
          <mxGeometry x="300" y="20" width="100" height="50" as="geometry" />
        </mxCell>
        <mxCell id="3" value="ประกาศตัวแปร books[100], count=0, choice, searchTitle" style="rectangle;whiteSpace=wrap;" parent="1" vertex="1">
          <mxGeometry x="250" y="100" width="200" height="60" as="geometry" />
        </mxCell>
        <mxCell id="4" value="เริ่มลูป while(1)" style="diamond;whiteSpace=wrap;" parent="1" vertex="1">
          <mxGeometry x="300" y="180" width="100" height="60" as="geometry" />
        </mxCell>
        <mxCell id="5" value="แสดงเมนู\n1. Add new book\n2. Search book by title\n3. Display all books\n4. Exit\nรับค่าตัวเลือก choice" style="parallelogram;whiteSpace=wrap;" parent="1" vertex="1">
          <mxGeometry x="200" y="260" width="300" height="100" as="geometry" />
        </mxCell>
        <mxCell id="6" value="เลือกทำงานตาม choice" style="diamond;whiteSpace=wrap;" parent="1" vertex="1">
          <mxGeometry x="300" y="380" width="100" height="60" as="geometry" />
        </mxCell>
        <mxCell id="7" value="Function addBook(books, &amp;count)" style="swimlane;whiteSpace=wrap;" parent="1" vertex="1">
          <mxGeometry x="150" y="460" width="300" height="300" as="geometry" />
        </mxCell>
        <mxCell id="8" value="Input: รับค่า searchTitle\nFunction searchBook(books, count, searchTitle)" style="swimlane;whiteSpace=wrap;" parent="1" vertex="1">
          <mxGeometry x="150" y="780" width="300" height="300" as="geometry" />
        </mxCell>
        <mxCell id="9" value="Function displayBooks(books, count)" style="swimlane;whiteSpace=wrap;" parent="1" vertex="1">
          <mxGeometry x="150" y="1110" width="300" height="200" as="geometry" />
        </mxCell>
        <mxCell id="10" value="Output: Exiting program...\nStop" style="ellipse;whiteSpace=wrap;" parent="1" vertex="1">
          <mxGeometry x="300" y="1350" width="100" height="50" as="geometry" />
        </mxCell>
        <mxCell id="11" value="Output: Invalid choice" style="parallelogram;whiteSpace=wrap;" parent="1" vertex="1">
          <mxGeometry x="300" y="1460" width="150" height="50" as="geometry" />
        </mxCell>
        <mxCell id="12" style="edgeStyle=orthogonalEdgeStyle;rounded=0;" parent="1" source="2" target="3" edge="1">
          <mxGeometry relative="1" as="geometry" />
        </mxCell>
        <mxCell id="13" style="edgeStyle=orthogonalEdgeStyle;rounded=0;" parent="1" source="3" target="4" edge="1">
          <mxGeometry relative="1" as="geometry" />
        </mxCell>
        <mxCell id="14" style="edgeStyle=orthogonalEdgeStyle;rounded=0;" parent="1" source="4" target="5" edge="1">
          <mxGeometry relative="1" as="geometry" />
        </mxCell>
        <mxCell id="15" style="edgeStyle=orthogonalEdgeStyle;rounded=0;" parent="1" source="5" target="6" edge="1">
          <mxGeometry relative="1" as="geometry" />
        </mxCell>
        <mxCell id="16" value="choice=1" style="edgeStyle=orthogonalEdgeStyle;rounded=0;" parent="1" source="6" target="7" edge="1">
          <mxGeometry relative="1" as="geometry" />
        </mxCell>
        <mxCell id="17" value="choice=2" style="edgeStyle=orthogonalEdgeStyle;rounded=0;" parent="1" source="6" target="8" edge="1">
          <mxGeometry relative="1" as="geometry">
            <Array as="points">
              <mxPoint x="500" y="410" />
              <mxPoint x="500" y="930" />
            </Array>
          </mxGeometry>
        </mxCell>
        <mxCell id="18" value="choice=3" style="edgeStyle=orthogonalEdgeStyle;rounded=0;" parent="1" source="6" target="9" edge="1">
          <mxGeometry relative="1" as="geometry">
            <Array as="points">
              <mxPoint x="520" y="410" />
              <mxPoint x="520" y="1210" />
            </Array>
          </mxGeometry>
        </mxCell>
        <mxCell id="19" value="choice=4" style="edgeStyle=orthogonalEdgeStyle;rounded=0;" parent="1" source="6" target="10" edge="1">
          <mxGeometry relative="1" as="geometry">
            <Array as="points">
              <mxPoint x="550" y="410" />
              <mxPoint x="550" y="1375" />
            </Array>
          </mxGeometry>
        </mxCell>
        <mxCell id="20" value="default" style="edgeStyle=orthogonalEdgeStyle;rounded=0;" parent="1" source="6" target="11" edge="1">
          <mxGeometry relative="1" as="geometry">
            <Array as="points">
              <mxPoint x="20" y="390" />
              <mxPoint x="20" y="1485" />
            </Array>
          </mxGeometry>
        </mxCell>
        <mxCell id="21" style="edgeStyle=orthogonalEdgeStyle;rounded=0;" parent="1" source="7" target="4" edge="1">
          <mxGeometry relative="1" as="geometry" />
        </mxCell>
        <mxCell id="22" style="edgeStyle=orthogonalEdgeStyle;rounded=0;" parent="1" source="8" target="4" edge="1">
          <mxGeometry relative="1" as="geometry">
            <Array as="points">
              <mxPoint x="110" y="930" />
              <mxPoint x="110" y="190" />
            </Array>
          </mxGeometry>
        </mxCell>
        <mxCell id="23" style="edgeStyle=orthogonalEdgeStyle;rounded=0;" parent="1" source="9" target="4" edge="1">
          <mxGeometry relative="1" as="geometry">
            <Array as="points">
              <mxPoint x="60" y="1210" />
              <mxPoint x="60" y="210" />
            </Array>
          </mxGeometry>
        </mxCell>
        <mxCell id="24" style="edgeStyle=orthogonalEdgeStyle;rounded=0;" parent="1" source="11" target="4" edge="1">
          <mxGeometry relative="1" as="geometry">
            <Array as="points">
              <mxPoint x="790" y="1485" />
              <mxPoint x="790" y="210" />
            </Array>
          </mxGeometry>
        </mxCell>
      </root>
    </mxGraphModel>
  </diagram>
  <diagram id="q-CIciFuJYpiS8QPMkeO" name="Page-2">
    <mxGraphModel dx="1042" dy="527" grid="1" gridSize="10" guides="1" tooltips="1" connect="1" arrows="1" fold="1" page="1" pageScale="1" pageWidth="827" pageHeight="1169" math="0" shadow="0">
      <root>
        <mxCell id="0" />
        <mxCell id="1" parent="0" />
      </root>
    </mxGraphModel>
  </diagram>
</mxfile>
